<?xml version="1.0" standalone="no"?><svg xmlns="http://www.w3.org/2000/svg" viewBox="0 0 1440 320"><path fill="#f3f4f5" fill-opacity="1" d="M0,192L30,186.7C60,181,120,171,180,154.7C240,139,300,117,360,138.7C420,160,480,224,540,234.7C600,245,660,203,720,186.7C780,171,840,181,900,170.7C960,160,1020,128,1080,133.3C1140,139,1200,181,1260,197.3C1320,213,1380,203,1410,197.3L1440,192L1440,0L1410,0C1380,0,1320,0,1260,0C1200,0,1140,0,1080,0C1020,0,960,0,900,0C840,0,780,0,720,0C660,0,600,0,540,0C480,0,420,0,360,0C300,0,240,0,180,0C120,0,60,0,30,0L0,0Z"></path></svg>