<?xml version="1.0" standalone="no"?><svg xmlns="http://www.w3.org/2000/svg" viewBox="0 0 1440 320"><path fill="#273036" fill-opacity="1" d="M0,288L9.6,245.3C19.2,203,38,117,58,80C76.8,43,96,53,115,53.3C134.4,53,154,43,173,74.7C192,107,211,181,230,218.7C249.6,256,269,256,288,234.7C307.2,213,326,171,346,154.7C364.8,139,384,149,403,160C422.4,171,442,181,461,181.3C480,181,499,171,518,149.3C537.6,128,557,96,576,74.7C595.2,53,614,43,634,48C652.8,53,672,75,691,112C710.4,149,730,203,749,240C768,277,787,299,806,288C825.6,277,845,235,864,224C883.2,213,902,235,922,229.3C940.8,224,960,192,979,170.7C998.4,149,1018,139,1037,133.3C1056,128,1075,128,1094,128C1113.6,128,1133,128,1152,138.7C1171.2,149,1190,171,1210,192C1228.8,213,1248,235,1267,213.3C1286.4,192,1306,128,1325,117.3C1344,107,1363,149,1382,144C1401.6,139,1421,85,1430,58.7L1440,32L1440,0L1430.4,0C1420.8,0,1402,0,1382,0C1363.2,0,1344,0,1325,0C1305.6,0,1286,0,1267,0C1248,0,1229,0,1210,0C1190.4,0,1171,0,1152,0C1132.8,0,1114,0,1094,0C1075.2,0,1056,0,1037,0C1017.6,0,998,0,979,0C960,0,941,0,922,0C902.4,0,883,0,864,0C844.8,0,826,0,806,0C787.2,0,768,0,749,0C729.6,0,710,0,691,0C672,0,653,0,634,0C614.4,0,595,0,576,0C556.8,0,538,0,518,0C499.2,0,480,0,461,0C441.6,0,422,0,403,0C384,0,365,0,346,0C326.4,0,307,0,288,0C268.8,0,250,0,230,0C211.2,0,192,0,173,0C153.6,0,134,0,115,0C96,0,77,0,58,0C38.4,0,19,0,10,0L0,0Z"></path></svg>